#!OML:ASF H:\Terrain\Patient Classification 1\Animal1\Tuesday\Animal1.ASF
:FULLY-SPECIFIED
:DEGREES
3885
root 8.36613 16.184 -19.5335 -350.877 -1.0058 0.261842
lowerback -6.44094 -1.08433 0.904941
upperback -11.4567 -1.35069 2.02131
thorax -8.44063 -0.650819 1.64756
lowerneck -0.550111 1.33346 -6.60503
upperneck 10.2383 1.32218 7.97568
head 3.01072 0.715864 3.54243
rclavicle 5.96354e-016 4.77083e-015
rhumerus -16.2079 29.233 -84.1264
rradius 128.358
rwrist -15.5376
rhand 27.0506 1.83707
rfingers 7.12502
rthumb 51.0368 -378.824
lclavicle 5.96354e-016 4.77083e-015
lhumerus -23.194 -10.673 86.0041
lradius 127.092
lwrist -5.49168
lhand -117.551 -122.105
lfingers 7.12502
lthumb 74.9482 -343.436
rfemur -9.73284 42.52 14.9365
rtibia 18.0024
rfoot -39.315 -43.6142
rtoes 37.0348
lfemur -10.4256 -52.007 -5.76735
ltibia 10.7701
lfoot -47.2769 40.2507
ltoes 44.0712
3886
root 8.36845 16.1802 -19.5395 -351.011 -1.05088 0.323998
lowerback -6.20039 -1.1189 0.779684
upperback -11.5013 -1.38815 2.07036
thorax -8.62458 -0.655422 1.77734
lowerneck 0.294497 1.35473 -6.81636
upperneck 9.33271 1.37906 7.74022
head 2.89147 0.690254 3.85372
rclavicle 5.96354e-016 -7.95139e-015
rhumerus -16.6626 29.6591 -84.1219
rradius 127.263
rwrist -15.3788
rhand 27.256 3.22579
rfingers 7.12502
rthumb 51.2239 -377.33
lclavicle 5.96354e-016 -7.95139e-015
lhumerus -23.6016 -10.7898 86.4124
lradius 126.119
lwrist -6.51174
lhand -117.559 -122.286
lfingers 7.12502
lthumb 74.9476 -343.587
rfemur -9.54616 42.6457 14.9583
rtibia 17.9481
rfoot -39.7375 -43.4013
rtoes 37.2822
lfemur -10.2443 -52.0828 -6.01847
ltibia 10.8566
lfoot -47.5279 40.0583
ltoes 44.4544
3887
root 8.37118 16.1801 -19.5449 -351.028 -1.03737 0.340995
lowerback -6.10388 -1.0481 0.782524
upperback -11.366 -1.29941 1.97036
thorax -8.53166 -0.616989 1.66708
lowerneck 0.413538 1.15773 -6.697
upperneck 8.74129 1.1344 7.67237
head 2.68784 0.568632 3.78594
rclavicle -1.37161e-014 2.70347e-014
rhumerus -16.6868 29.7949 -83.9679
rradius 126.408
rwrist -15.3026
rhand 25.7916 3.13974
rfingers 7.12502
rthumb 49.887 -378.142
lclavicle -1.37161e-014 2.70347e-014
lhumerus -23.4433 -11.3322 86.5387
lradius 124.885
lwrist -7.51525
lhand -117.994 -123.525
lfingers 7.12502
lthumb 74.9135 -343.215
rfemur -9.51697 42.8274 14.9451
rtibia 17.9247
rfoot -40.0572 -43.4996
rtoes 37.4959
lfemur -10.2596 -52.0713 -6.04332
ltibia 10.8965
lfoot -47.5471 39.9191
ltoes 44.6776
3888
root 8.37261 16.1837 -19.552 -350.936 -0.984842 0.297755
lowerback -6.1291 -0.390217 1.13754
upperback -10.2647 -0.485577 1.08305
thorax -7.31612 -0.281538 0.50376
lowerneck -3.81882 0.0955013 -5.05236
upperneck 9.47928 -0.220966 7.61948
head 3.44688 0.0496958 3.13893
rclavicle -2.68359e-015 1.98785e-015
rhumerus -14.6861 27.7407 -82.9788
rradius 125.169
rwrist -14.6065
rhand 23.5602 3.52364
rfingers 7.12502
rthumb 47.8361 -378.765
lclavicle -2.68359e-015 1.98785e-015
lhumerus -20.4574 -13.7767 85.8724
lradius 123.289
lwrist -8.09372
lhand -118.927 -124.196
lfingers 7.12502
lthumb 74.7994 -340.464
rfemur -9.67006 42.8929 14.8912
rtibia 17.9196
rfoot -39.9194 -43.7968
rtoes 37.3733
lfemur -10.4812 -51.9793 -5.82295
ltibia 10.8768
lfoot -47.265 40.0272
ltoes 44.5607
3889
root 8.37206 16.1854 -19.5597 -350.886 -0.962592 0.2918
lowerback -6.07825 -0.337845 1.15868
upperback -10.1342 -0.420496 1.00201
thorax -7.20195 -0.253539 0.4056
lowerneck -4.02289 -0.0368081 -4.96124
upperneck 9.15574 -0.379924 7.58942
head 3.39463 -0.0261481 3.10596
rclavicle -2.18663e-015 -1.07344e-014
rhumerus -14.7404 27.8504 -82.7721
rradius 123.964
rwrist -14.4203
rhand 21.9538 3.75402
rfingers 7.12502
rthumb 46.3507 -379.193
lclavicle -2.18663e-015 -1.07344e-014
lhumerus -20.4099 -14.3002 85.9425
lradius 122.272
lwrist -8.96525
lhand -119.656 -124.723
lfingers 7.12502
lthumb 74.6722 -338.36
rfemur -9.80218 42.9461 14.8048
rtibia 17.9289
rfoot -40.2674 -43.5874
rtoes 37.8922
lfemur -10.6085 -51.9018 -5.69591
ltibia 10.8077
lfoot -46.9771 40.18
ltoes 44.0834
3890
root 8.37213 16.1856 -19.568 -350.856 -0.958136 0.281413
lowerback -5.99092 -0.409878 1.13451
upperback -10.1908 -0.509274 1.10221
thorax -7.31332 -0.2921 0.5261
lowerneck -3.5868 -0.0145224 -5.32329
upperneck 8.87725 -0.340277 7.75241
head 3.23582 -0.0225993 3.2139
rclavicle 7.95139e-016 -1.59028e-015
rhumerus -15.1692 28.4394 -82.6382
rradius 122.886
rwrist -14.7403
rhand 20.2474 3.43151
rfingers 7.12502
rthumb 44.7655 -380.16
lclavicle 7.95139e-016 -1.59028e-015
lhumerus -20.9107 -14.4342 86.1647
lradius 121.247
lwrist -10.0058
lhand -120.092 -125.639
lfingers 7.12502
lthumb 74.5806 -337.728
rfemur -9.9067 42.9193 14.7437
rtibia 17.9301
rfoot -40.1907 -43.5527
rtoes 37.8703
lfemur -10.6833 -51.5897 -5.62973
ltibia 10.7692
lfoot -46.5711 40.1117
ltoes 43.5265
3891
root 8.37318 16.1856 -19.5745 -350.872 -0.967099 0.36968
lowerback -5.90284 -0.499805 1.01006
upperback -10.2152 -0.623508 1.16549
thorax -7.38812 -0.337397 0.663931
lowerneck -3.19199 -0.0102522 -5.64073
upperneck 8.37397 -0.289938 7.61439
head 3.35459 -0.0451515 3.57483
rclavicle -2.18663e-015 1.19271e-015
rhumerus -15.6361 29.0531 -82.5663
rradius 121.649
rwrist -14.6921
rhand 19.1362 4.15993
rfingers 7.12502
rthumb 43.7296 -379.823
lclavicle -2.18663e-015 1.19271e-015
lhumerus -21.3247 -14.5836 86.3461
lradius 120.197
lwrist -10.9405
lhand -120.479 -126.12
lfingers 7.12502
lthumb 74.4895 -336.847
rfemur -9.91808 42.9556 14.6391
rtibia 17.928
rfoot -39.8375 -43.8511
rtoes 37.3356
lfemur -10.7112 -51.5163 -5.70421
ltibia 10.7734
lfoot -46.6439 39.8649
ltoes 43.742
3892
root 8.37528 16.1844 -19.5777 -350.897 -0.960194 0.334192
lowerback -5.85509 -0.533069 1.05032
upperback -10.1924 -0.666744 1.19039
thorax -7.39049 -0.360859 0.668167
lowerneck -2.76647 -0.108338 -5.70614
upperneck 8.04968 -0.417174 7.56519
head 3.1708 -0.120967 3.55261
rclavicle -8.44835e-015 -3.97569e-015
rhumerus -15.9882 29.4507 -82.4813
rradius 120.117
rwrist -14.4675
rhand 18.2031 6.1864
rfingers 7.12502
rthumb 42.8576 -378.11
lclavicle -8.44835e-015 -3.97569e-015
lhumerus -21.7671 -14.8994 86.4344
lradius 119.219
lwrist -11.6274
lhand -121.217 -126.758
lfingers 7.12502
lthumb 74.2916 -334.94
rfemur -9.88943 43.1332 14.6885
rtibia 17.932
rfoot -40.275 -43.7751
rtoes 37.9077
lfemur -10.7543 -51.9464 -5.58943
ltibia 10.7725
lfoot -47.2475 39.8104
ltoes 44.2363
3893
root 8.37776 16.183 -19.5801 -350.882 -0.949544 0.244091
lowerback -5.80295 -0.546972 1.16843
upperback -10.1842 -0.684822 1.20691
thorax -7.41286 -0.377906 0.620329
lowerneck -2.52664 -0.222612 -5.6992
upperneck 7.84483 -0.564439 7.46052
head 3.0645 -0.202451 3.50205
rclavicle -6.95746e-015 -1.11319e-014
rhumerus -16.3957 29.9036 -82.4429
rradius 118.806
rwrist -14.1917
rhand 16.7369 7.73972
rfingers 7.12502
rthumb 41.484 -377.021
lclavicle -6.95746e-015 -1.11319e-014
lhumerus -22.5227 -15.2823 86.513
lradius 118.482
lwrist -12.3071
lhand -122.233 -127.873
lfingers 7.12502
lthumb 73.9691 -332.667
rfemur -9.92186 43.2023 14.7555
rtibia 17.9608
rfoot -40.9916 -43.2482
rtoes 39.1466
lfemur -10.8251 -52.3267 -5.41116
ltibia 10.7612
lfoot -47.5507 40.0977
ltoes 44.2487
